<svg width="24" height="24" viewBox="0 0 24 24" fill="none" xmlns="http://www.w3.org/2000/svg">
<path d="M4 12.0828C4 10.6601 5.06688 9.46354 6.48027 9.30108L11.6803 8.70338C11.8927 8.67896 12.1073 8.67896 12.3197 8.70338L17.5197 9.30108C18.9331 9.46354 20 10.6601 20 12.0828V18.2621C20 19.625 19.0188 20.7898 17.6757 21.0214L12.4757 21.918C12.1609 21.9722 11.8391 21.9722 11.5243 21.918L6.32426 21.0214C4.98124 20.7898 4 19.625 4 18.2621V12.0828Z" stroke="#292D32" stroke-width="1.5"/>
<circle cx="12" cy="14.2222" r="1.11111" fill="#292D32" stroke="#292D32" stroke-width="1.5"/>
<path d="M8 8.99994V4.79994C8 3.25354 9.2536 1.99994 10.8 1.99994H13.2C14.7464 1.99994 16 3.25354 16 4.79994V8.99994" stroke="#292D32" stroke-width="1.5" stroke-linecap="round"/>
<path d="M12 15.3334V17.5556" stroke="#292D32" stroke-width="1.5" stroke-linecap="round"/>
</svg>
